<?xml version="1.0" standalone="no"?>
<!DOCTYPE svg PUBLIC "-//W3C//DTD SVG 20010904//EN"
 "http://www.w3.org/TR/2001/REC-SVG-20010904/DTD/svg10.dtd">
<svg version="1.0" xmlns="http://www.w3.org/2000/svg"
 width="600.000000pt" height="400.000000pt" viewBox="0 0 600.000000 400.000000"
 preserveAspectRatio="xMidYMid meet">

<g transform="translate(0.000000,400.000000) scale(0.100000,-0.100000)"
fill="#000000" stroke="none">
<path d="M2645 3017 l-350 -202 212 -3 212 -2 141 81 140 81 140 -81 141 -81
212 2 212 3 -351 203 c-193 111 -353 202 -355 202 -2 0 -161 -91 -354 -203z"/>
<path d="M2012 2488 c62 -106 190 -328 285 -493 95 -165 292 -506 436 -757
144 -251 264 -457 267 -457 3 0 33 50 67 110 l63 111 -97 167 c-233 402 -277
477 -388 671 -65 113 -166 288 -225 390 -59 102 -112 195 -119 208 -12 22 -11
22 51 22 l63 0 194 -338 c107 -185 275 -476 374 -647 99 -170 184 -320 190
-333 6 -12 14 -22 18 -22 6 0 129 205 129 216 0 2 -89 158 -198 347 -109 188
-283 489 -387 670 l-189 327 -322 0 -323 0 111 -192z"/>
<path d="M2684 2665 c3 -8 31 -58 61 -110 l56 -95 192 0 192 0 89 -158 c49
-86 132 -233 184 -327 52 -93 100 -176 107 -183 10 -11 24 6 74 91 33 58 61
109 61 113 0 4 -56 107 -125 230 -69 122 -125 225 -125 228 0 3 118 7 262 8
l262 3 62 108 63 107 -710 0 c-629 0 -710 -2 -705 -15z"/>
<path d="M1980 1864 l0 -409 348 -201 c191 -111 349 -200 351 -198 2 2 -43 84
-100 183 l-104 181 -135 79 -135 78 -5 164 -5 164 -104 180 c-57 99 -105 182
-107 184 -2 2 -4 -180 -4 -405z"/>
<path d="M3910 2087 l-105 -182 -5 -164 -5 -164 -135 -78 -134 -79 -107 -185
c-59 -102 -106 -185 -104 -185 1 0 128 72 281 161 154 89 312 180 351 203 l73
41 0 408 c0 224 -1 407 -2 407 -2 0 -50 -82 -108 -183z"/>
</g>
</svg>
